# xmcd
#
# Track frame offsets:
#	150
#	12711
#	24703
#	37443
#	49636
#	61813
#	73121
#	85216
#	95660
#	107594
#	118711
#	132242
#	143097
#	153909
#	164137
#	177111
#	187895
#	199543
#	210237
#	220748
#
# Disc length: 3119 seconds
#
# Revision: 1
# Processed by: cddbd v1.5.2PL0 Copyright (c) Steve Scherf et al.
# Submitted via: audiograbber 1.83.01
#
DISCID=1f0c2d14
DTITLE=Various Artist - American Roadsongs - CD 2 - Pan American
DYEAR=1900
DGENRE=Country
TTITLE0=Annisteen Allen - Arkansas
TTITLE1=Louvin Brothers - Kentucky
TTITLE2=Tennessee Ernie Ford - Cincinnati Dancing Pig
TTITLE3=Eddy Arnold - Texarkana Baby
TTITLE4=Hank Penny - Jersey Bounce
TTITLE5=Hi-Flyers - Reno Street Blues
TTITLE6=Jimmy Wilson - Big Town Jump
TTITLE7=Georgia Brown - I Want To Go Back To Mexico
TTITLE8=Clarence Garlow - Route 90
TTITLE9=Lula Red - Going Back To Mexico
TTITLE10=Julia - Show Me Missouri Blues
TTITLE11=Grandpa Jones - Happy Little Home in Arkansas
TTITLE12=Claude Casey - Pine State Honky Tonk
TTITLE13=Amos Milburn - Rocky Mountain
TTITLE14=Louis Jordan - Salt Pork West Virgina
TTITLE15=Billy Haley - My Sweet Little Girl From Nevada
TTITLE16=Roy Hogsed - Slow Train Through Arkansas
TTITLE17=Milo Twins - Downtown Boogie
TTITLE18=Carl Deacon Moore - Arkansas Boogie
TTITLE19=Hawkshaw Hawkins - Pan American
EXTD=
EXTT0=
EXTT1=
EXTT2=
EXTT3=
EXTT4=
EXTT5=
EXTT6=
EXTT7=
EXTT8=
EXTT9=
EXTT10=
EXTT11=
EXTT12=
EXTT13=
EXTT14=
EXTT15=
EXTT16=
EXTT17=
EXTT18=
EXTT19=
PLAYORDER=
